# xmcd
#
# Track frame offsets:
#	150
#	18075
#	32110
#	50819
#	69205
#	87990
#	107016
#	124576
#	141495
#	158725
#	175762
#	203010
#	220029
#	235120
#	247661
#	268215
#	284533
#	301683
#
# Disc length: 4371 seconds
#
# Revision: 0
# Processed by: cddbd v1.5.1PL2 Copyright (c) Steve Scherf et al.
# Submitted via: EasyCDDAExtractor 9.1.0.1
#
DISCID=f2111112
DTITLE=Various Artist - Caras
DYEAR=1900
DGENRE=Popular
TTITLE0=Luís Represas - A Hora do Lobo
TTITLE1=GNR - Ananás
TTITLE2=Paulo Gonzo - Dei-te Quase Tudo
TTITLE3=Delfins - A Primeira Vez
TTITLE4=João Pedro Pais - Louco (Por Ti)
TTITLE5=Além Mar - Deixa-me Olhar
TTITLE6=Pólo Norte - Amanhã
TTITLE7=Santamaria - Eu Sei, Tu És
TTITLE8=D. R. Sax - Voulez-vous (Coucher Avec Moi)
TTITLE9=M. D. A. - Por Quem Não Esqueci
TTITLE10=Cool Hipnose - No Dia Em Que Eu Não Te Encontrar
TTITLE11=Tim - Gritos Mudos
TTITLE12=Sara Tavares and Shouti - Quando A Noite Cai (Lua Dominante)
TTITLE13=Vozes da Rádio - Leãozinho
TTITLE14=Flak - Sei Onde Me Vou Perder
TTITLE15=Pedro Miguéis - Horas Ao Luar
TTITLE16=Rio Grande - Loucos De Lisboa
TTITLE17=Santos and Pecadores - Momento Final (Ao Vivo)
EXTD=
EXTT0=
EXTT1=
EXTT2=
EXTT3=
EXTT4=
EXTT5=
EXTT6=
EXTT7=
EXTT8=
EXTT9=
EXTT10=
EXTT11=
EXTT12=
EXTT13=
EXTT14=
EXTT15=
EXTT16=
EXTT17=
PLAYORDER=
